<svg width="900" height="900" viewBox="0 0 900 900" fill="none" xmlns="http://www.w3.org/2000/svg">
  <defs>
    <linearGradient id="bg" x1="450" y1="0" x2="450" y2="900" gradientUnits="userSpaceOnUse">
      <stop stop-color="#8193B0"/>
      <stop offset="0.45" stop-color="#B2B7D7"/>
      <stop offset="1" stop-color="#42506C"/>
    </linearGradient>
  </defs>
  <rect width="900" height="900" fill="url(#bg)"/>
  <rect x="188" y="154" width="360" height="520" rx="20" fill="#F8F7FD"/>
  <rect x="352" y="214" width="360" height="520" rx="20" fill="#E8E8F8"/>
  <rect x="246" y="242" width="154" height="16" rx="8" fill="#7A7DAF"/>
  <rect x="246" y="294" width="230" height="12" rx="6" fill="#C4C6E7"/>
  <rect x="246" y="332" width="196" height="12" rx="6" fill="#C4C6E7"/>
  <rect x="246" y="370" width="220" height="12" rx="6" fill="#C4C6E7"/>
  <circle cx="280" cy="470" r="34" fill="#E2E1F5"/>
  <path d="M262 470L274 482L298 454" stroke="#5A5C91" stroke-width="10" stroke-linecap="round" stroke-linejoin="round"/>
  <circle cx="280" cy="568" r="34" fill="#E2E1F5"/>
  <path d="M262 568L274 580L298 552" stroke="#5A5C91" stroke-width="10" stroke-linecap="round" stroke-linejoin="round"/>
  <rect x="334" y="454" width="178" height="12" rx="6" fill="#B3B6D9"/>
  <rect x="334" y="488" width="146" height="12" rx="6" fill="#B3B6D9"/>
  <rect x="334" y="552" width="198" height="12" rx="6" fill="#B3B6D9"/>
  <rect x="334" y="586" width="156" height="12" rx="6" fill="#B3B6D9"/>
</svg>
