<svg width="900" height="900" viewBox="0 0 900 900" fill="none" xmlns="http://www.w3.org/2000/svg">
  <defs>
    <linearGradient id="bg" x1="450" y1="0" x2="450" y2="900" gradientUnits="userSpaceOnUse">
      <stop stop-color="#6C7C9E"/>
      <stop offset="0.5" stop-color="#7E6880"/>
      <stop offset="1" stop-color="#2D3548"/>
    </linearGradient>
  </defs>
  <rect width="900" height="900" fill="url(#bg)"/>
  <rect y="560" width="900" height="340" fill="#273246"/>
  <circle cx="676" cy="220" r="70" fill="#F4D1A6" fill-opacity="0.84"/>
  <path d="M176 670C244 560 330 468 450 414C570 468 656 560 724 670" stroke="#D3D9E7" stroke-width="22" stroke-linecap="round"/>
  <path d="M258 720C304 632 366 560 450 510C534 560 596 632 642 720" stroke="#8E94BA" stroke-width="18" stroke-linecap="round"/>
  <rect x="410" y="268" width="80" height="180" rx="20" fill="#F7F4E7"/>
  <path d="M450 236C486 236 514 266 514 304C514 364 472 392 450 438C428 392 386 364 386 304C386 266 414 236 450 236Z" fill="#F2B166"/>
  <path d="M198 214C236 186 286 188 324 218" stroke="#263349" stroke-width="10" stroke-linecap="round"/>
  <path d="M260 174C286 154 322 156 348 180" stroke="#263349" stroke-width="10" stroke-linecap="round"/>
</svg>
