<svg width="1600" height="900" viewBox="0 0 1600 900" fill="none" xmlns="http://www.w3.org/2000/svg">
  <defs>
    <linearGradient id="sky" x1="800" y1="40" x2="800" y2="700" gradientUnits="userSpaceOnUse">
      <stop stop-color="#6E87B4"/>
      <stop offset="0.34" stop-color="#96ACC2"/>
      <stop offset="0.68" stop-color="#CB927B"/>
      <stop offset="1" stop-color="#604F61"/>
    </linearGradient>
    <linearGradient id="water" x1="800" y1="470" x2="800" y2="760" gradientUnits="userSpaceOnUse">
      <stop stop-color="#B78670"/>
      <stop offset="0.52" stop-color="#5C657C"/>
      <stop offset="1" stop-color="#2E3850"/>
    </linearGradient>
    <linearGradient id="deck" x1="800" y1="450" x2="800" y2="900" gradientUnits="userSpaceOnUse">
      <stop stop-color="#A1826E"/>
      <stop offset="1" stop-color="#463A39"/>
    </linearGradient>
  </defs>
  <rect width="1600" height="900" fill="url(#sky)"/>
  <circle cx="168" cy="420" r="64" fill="#F5C172" fill-opacity="0.92"/>
  <rect y="470" width="1600" height="260" fill="url(#water)"/>
  <rect y="730" width="1600" height="170" fill="#232C3F"/>
  <path d="M0 682C92 650 184 646 276 656C368 666 460 690 552 694C644 698 736 682 828 664C920 646 1012 626 1104 624C1196 622 1288 638 1380 658C1472 678 1540 694 1600 698V900H0V682Z" fill="#3A4A39"/>
  <path d="M0 748C98 726 210 728 336 744C462 760 574 790 672 792C770 794 886 768 1020 742C1154 716 1282 694 1410 706C1508 716 1572 736 1600 748V900H0V748Z" fill="#1F2737"/>
  <path d="M674 604L770 604L880 900H722L674 604Z" fill="url(#deck)"/>
  <path d="M930 604L826 604L710 900H872L930 604Z" fill="#5D4A45"/>
  <path d="M612 588L674 604L722 900L630 900L612 588Z" fill="#40373A"/>
  <path d="M988 588L930 604L872 900L972 900L988 588Z" fill="#40373A"/>
  <path d="M474 566L612 588L630 900H530L474 566Z" fill="#514749"/>
  <path d="M1128 566L988 588L972 900H1070L1128 566Z" fill="#514749"/>
  <path d="M584 644L642 652L646 706L592 700L584 644Z" fill="#B59A84"/>
  <path d="M955 644L1015 636L1006 694L948 702L955 644Z" fill="#B59A84"/>
  <path d="M758 606L810 606L820 900H750L758 606Z" fill="#302B31"/>
  <path d="M100 278C132 254 172 256 204 282" stroke="#2C3847" stroke-width="8" stroke-linecap="round"/>
  <path d="M166 252C192 230 222 234 248 258" stroke="#2C3847" stroke-width="8" stroke-linecap="round"/>
  <path d="M228 302C250 286 276 288 298 306" stroke="#2C3847" stroke-width="8" stroke-linecap="round"/>
  <path d="M306 258C328 244 354 246 376 266" stroke="#2C3847" stroke-width="8" stroke-linecap="round"/>
</svg>
